<?xml version="1.0" encoding="UTF-8"?>
<svg version="1.1" xmlns="http://www.w3.org/2000/svg" width="78" height="78">
<path d="M0 0 C0.725289 -0.01805695 1.450578 -0.03611389 2.19784546 -0.05471802 C3.73247852 -0.08368501 5.26735751 -0.10148734 6.80224609 -0.10888672 C9.12385277 -0.13256179 11.43456914 -0.23071778 13.75390625 -0.33203125 C21.34308384 -0.5020065 26.65289835 -0.18642306 32.53515625 5.13671875 C36.90485752 10.38446153 38.04162704 14.58724782 37.7109375 21.3046875 C37.74123047 22.18576172 37.77152344 23.06683594 37.80273438 23.97460938 C37.70514182 29.26412565 36.36496778 32.74585589 33.015625 36.859375 C26.46067731 42.74015156 18.68446889 41.72390568 10.4609375 41.3046875 C8.91222647 41.25946611 7.36338776 41.21841495 5.81445312 41.18164062 C2.04758792 41.0832175 -1.71305775 40.92840507 -5.4765625 40.7421875 C-3.8265625 38.7621875 -2.1765625 36.7821875 -0.4765625 34.7421875 C-2.1265625 33.0921875 -3.7765625 31.4421875 -5.4765625 29.7421875 C-4.4865625 28.4221875 -3.4965625 27.1021875 -2.4765625 25.7421875 C-3.1365625 25.4121875 -3.7965625 25.0821875 -4.4765625 24.7421875 C-2.8265625 24.0821875 -1.1765625 23.4221875 0.5234375 22.7421875 C-1.4565625 22.4121875 -3.4365625 22.0821875 -5.4765625 21.7421875 C-4.9815625 20.6284375 -4.4865625 19.5146875 -3.9765625 18.3671875 C-2.3491119 15.08803001 -2.3491119 15.08803001 -2.4765625 12.7421875 C-5.7765625 12.4121875 -9.0765625 12.0821875 -12.4765625 11.7421875 C-11.4865625 10.4221875 -10.4965625 9.1021875 -9.4765625 7.7421875 C-10.1365625 6.7521875 -10.7965625 5.7621875 -11.4765625 4.7421875 C-8.15507014 0.50858096 -5.11927608 0.0793796 0 0 Z M7.5234375 10.7421875 C7.5234375 17.3421875 7.5234375 23.9421875 7.5234375 30.7421875 C13.4634375 30.7421875 19.4034375 30.7421875 25.5234375 30.7421875 C25.5234375 29.0921875 25.5234375 27.4421875 25.5234375 25.7421875 C22.5534375 25.7421875 19.5834375 25.7421875 16.5234375 25.7421875 C16.5234375 24.0921875 16.5234375 22.4421875 16.5234375 20.7421875 C19.4934375 20.7421875 22.4634375 20.7421875 25.5234375 20.7421875 C25.5234375 17.4421875 25.5234375 14.1421875 25.5234375 10.7421875 C19.5834375 10.7421875 13.6434375 10.7421875 7.5234375 10.7421875 Z " fill="#E8B491" transform="translate(21.4765625,18.2578125)"/>
<path d="M0 0 C4.37380837 -0.2497782 8.74370806 -0.42978019 13.12255859 -0.54931641 C14.60701873 -0.5991953 16.09099793 -0.66713623 17.57373047 -0.75439453 C23.9021434 -1.11711543 29.59103839 -1.41696124 35.22875977 1.89916992 C39.5442498 5.81033547 42.42377919 9.40822333 43.29296875 15.25390625 C43.30992335 17.02370549 43.27452319 18.79476026 43.1875 20.5625 C43.21779297 21.44357422 43.24808594 22.32464844 43.27929688 23.23242188 C43.18003356 28.61249333 41.81043648 31.98962079 38.3359375 36.1171875 C33.26923924 40.66277989 28.8897898 40.94690433 22.25585938 40.79101562 C20.99580078 40.71560547 19.73574219 40.64019531 18.4375 40.5625 C16.49520508 40.5015918 16.49520508 40.5015918 14.51367188 40.43945312 C11.33850108 40.33400465 8.17126338 40.18658243 5 40 C5 39.67 5 39.34 5 39 C12.92 38.67 20.84 38.34 29 38 C29 37.34 29 36.68 29 36 C29.66 35.34 30.32 34.68 31 34 C31.33 33.01 31.66 32.02 32 31 C32.66 31 33.32 31 34 31 C34 30.071875 34 29.14375 34 28.1875 C34 26.125 34 24.0625 34 22 C30.37 21.67 26.74 21.34 23 21 C23 21.99 23 22.98 23 24 C25.97 24 28.94 24 32 24 C32.04254356 25.99954746 32.04080783 28.00041636 32 30 C31 31 31 31 29.14233398 31.11352539 C28.35157471 31.10828857 27.56081543 31.10305176 26.74609375 31.09765625 C25.9770874 31.09515869 25.20808105 31.09266113 24.41577148 31.09008789 C23.43294189 31.08098389 22.4501123 31.07187988 21.4375 31.0625 C18.323125 31.041875 15.20875 31.02125 12 31 C12 23.74 12 16.48 12 9 C16.95 8.67 21.9 8.34 27 8 C26.67 6.35 26.34 4.7 26 3 C26.33 2.67 26.66 2.34 27 2 C18.09 1.67 9.18 1.34 0 1 C0 0.67 0 0.34 0 0 Z M13 10 C13 16.6 13 23.2 13 30 C18.94 30 24.88 30 31 30 C31 28.35 31 26.7 31 25 C28.03 25 25.06 25 22 25 C22 23.35 22 21.7 22 20 C24.97 20 27.94 20 31 20 C31 16.7 31 13.4 31 10 C25.06 10 19.12 10 13 10 Z " fill="#620E05" transform="translate(16,19)"/>
<path d="M0 0 C2.31 0.66 4.62 1.32 7 2 C7 2.99 7 3.98 7 5 C7.66 5.33 8.32 5.66 9 6 C8.34 7.32 7.68 8.64 7 10 C7.515625 10.391875 8.03125 10.78375 8.5625 11.1875 C9.036875 11.785625 9.51125 12.38375 10 13 C9.68404492 14.67004829 9.34820041 16.33637583 9 18 C9.350625 19.03125 9.70125 20.0625 10.0625 21.125 C10.371875 22.07375 10.68125 23.0225 11 24 C10.34 24.99 9.68 25.98 9 27 C8.34 27 7.68 27 7 27 C8.86566488 30.62793998 8.86566488 30.62793998 12 33 C10.85910005 36.42269984 9.79035429 37.7522146 7 40 C4.25 40.25 4.25 40.25 2 40 C3.65 38.02 5.3 36.04 7 34 C5.35 32.35 3.7 30.7 2 29 C2.99 27.68 3.98 26.36 5 25 C4.34 24.67 3.68 24.34 3 24 C4.65 23.34 6.3 22.68 8 22 C6.02 21.67 4.04 21.34 2 21 C2.495 19.88625 2.99 18.7725 3.5 17.625 C5.1274506 14.34584251 5.1274506 14.34584251 5 12 C1.7 11.67 -1.6 11.34 -5 11 C-4.01 9.68 -3.02 8.36 -2 7 C-2.66 6.01 -3.32 5.02 -4 4 C-2.68 2.68 -1.36 1.36 0 0 Z " fill="#FFFFFF" transform="translate(14,19)"/>
<path d="M0 0 C1.79133978 -0.05391993 3.58313899 -0.09275571 5.375 -0.125 C6.37273438 -0.14820313 7.37046875 -0.17140625 8.3984375 -0.1953125 C11 0 11 0 13 2 C12.7578125 3.9453125 12.7578125 3.9453125 12.125 6.125 C11.92132813 6.84945312 11.71765625 7.57390625 11.5078125 8.3203125 C11.34023438 8.87460937 11.17265625 9.42890625 11 10 C10.34 10 9.68 10 9 10 C8.87625 11.134375 8.7525 12.26875 8.625 13.4375 C8.315625 15.2009375 8.315625 15.2009375 8 17 C5.703463 18.1482685 4.41686833 18.11561175 1.8671875 18.09765625 C1.06152344 18.09443359 0.25585938 18.09121094 -0.57421875 18.08789062 C-1.41597656 18.07951172 -2.25773437 18.07113281 -3.125 18.0625 C-3.97449219 18.05798828 -4.82398438 18.05347656 -5.69921875 18.04882812 C-7.79950909 18.03702874 -9.8997633 18.01909306 -12 18 C-11.34 17.67 -10.68 17.34 -10 17 C-10.020625 16.030625 -10.04125 15.06125 -10.0625 14.0625 C-10 11 -10 11 -9 10 C-6.14122091 9.76298761 -3.30116703 9.57780818 -0.4375 9.4375 C0.36880859 9.39431641 1.17511719 9.35113281 2.00585938 9.30664062 C4.00368805 9.20024738 6.0018207 9.09959112 8 9 C8.33 7.02 8.66 5.04 9 3 C6.03 3 3.06 3 0 3 C0 2.01 0 1.02 0 0 Z " fill="#EE7E32" transform="translate(39,40)"/>
<path d="M0 0 C2.31 0 4.62 0 7 0 C7.21977188 1.66049868 7.37292323 3.3298482 7.5 5 C7.5928125 5.928125 7.685625 6.85625 7.78125 7.8125 C6.72782846 12.11045987 4.89111929 14.39705501 1.67382812 17.39453125 C-3.63952641 20.58487269 -9.49903138 19.81712436 -15.5 19.5 C-16.799375 19.46390625 -18.09875 19.4278125 -19.4375 19.390625 C-22.62807905 19.29678444 -25.81247549 19.16561878 -29 19 C-29 18.67 -29 18.34 -29 18 C-21.08 17.67 -13.16 17.34 -5 17 C-5 16.34 -5 15.68 -5 15 C-4.34 14.34 -3.68 13.68 -3 13 C-2.67 12.01 -2.34 11.02 -2 10 C-1.34 10 -0.68 10 0 10 C0 9.071875 0 8.14375 0 7.1875 C0 4.79166667 0 2.39583333 0 0 Z " fill="#B31B09" transform="translate(50,40)"/>
<path d="M0 0 C1.953125 0.12109375 1.953125 0.12109375 4 1 C5.484375 2.84765625 5.484375 2.84765625 6.75 5.0625 C7.17796875 5.79597656 7.6059375 6.52945312 8.046875 7.28515625 C8.36140625 7.85105469 8.6759375 8.41695312 9 9 C8.34 9.66 7.68 10.32 7 11 C7.37125 11.5775 7.7425 12.155 8.125 12.75 C9 15 9 15 8.125 17.25 C7.75375 17.8275 7.3825 18.405 7 19 C6.01 19 5.02 19 4 19 C4 15.7 4 12.4 4 9 C-2.27 9 -8.54 9 -15 9 C-15 15.6 -15 22.2 -15 29 C-9.06 29 -3.12 29 3 29 C3 29.33 3 29.66 3 30 C-3.27 30 -9.54 30 -16 30 C-16 22.74 -16 15.48 -16 8 C-11.05 7.67 -6.1 7.34 -1 7 C-1.33 5.35 -1.66 3.7 -2 2 C-1.34 1.34 -0.68 0.68 0 0 Z " fill="#8C3C07" transform="translate(44,20)"/>
<path d="M0 0 C5.61 0 11.22 0 17 0 C16.67 0.99 16.34 1.98 16 3 C16.31478446 4.33783393 16.64587656 5.67203709 17 7 C15.13083206 8.86916794 12.12555426 8.21688008 9.625 8.25 C8.46226563 8.27578125 7.29953125 8.3015625 6.1015625 8.328125 C3 8 3 8 1.0859375 6.609375 C0 5 0 5 0 3 C0.66 3 1.32 3 2 3 C2 2.34 2 1.68 2 1 C1.34 0.67 0.68 0.34 0 0 Z " fill="#EE7E32" transform="translate(27,20)"/>
<path d="M0 0 C1.79133978 -0.05391993 3.58313899 -0.09275571 5.375 -0.125 C6.37273438 -0.14820313 7.37046875 -0.17140625 8.3984375 -0.1953125 C11 0 11 0 13 2 C12.7578125 3.9453125 12.7578125 3.9453125 12.125 6.125 C11.92132813 6.84945312 11.71765625 7.57390625 11.5078125 8.3203125 C11.25644531 9.15175781 11.25644531 9.15175781 11 10 C10.34 10 9.68 10 9 10 C8.67 12.31 8.34 14.62 8 17 C6.35 17.33 4.7 17.66 3 18 C2.375 15.125 2.375 15.125 2 12 C4.1385485 9.8614515 5.13275314 9.57344937 8 9 C8.33 7.02 8.66 5.04 9 3 C6.03 3 3.06 3 0 3 C0 2.01 0 1.02 0 0 Z " fill="#EE660D" transform="translate(39,40)"/>
<path d="M0 0 C3.3 0 6.6 0 10 0 C9.67 1.32 9.34 2.64 9 4 C9 5.32 9 6.64 9 8 C3.5 8.36666667 3.5 8.36666667 1.125 6.625 C0 5 0 5 0 3 C0.66 3 1.32 3 2 3 C2 2.34 2 1.68 2 1 C1.34 0.67 0.68 0.34 0 0 Z " fill="#EE9960" transform="translate(27,20)"/>
<path d="M0 0 C1.67542976 0.28604898 3.34385343 0.61781233 5 1 C5.38133299 2.9914056 5.71325582 4.99279077 6 7 C5 8 5 8 3.15234375 8.09765625 C1.1015625 8.06510417 -0.94921875 8.03255208 -3 8 C-2.34 7.67 -1.68 7.34 -1 7 C-1.020625 6.030625 -1.04125 5.06125 -1.0625 4.0625 C-1 1 -1 1 0 0 Z " fill="#EE975D" transform="translate(30,50)"/>
<path d="M0 0 C2.31 0 4.62 0 7 0 C5.02 0.99 5.02 0.99 3 2 C2.01 1.34 1.02 0.68 0 0 Z " fill="#FFFFFF" transform="translate(12,53)"/>
<path d="M0 0 C2.125 0.375 2.125 0.375 4 1 C3 2 3 2 0.4375 2.0625 C-0.7690625 2.0315625 -0.7690625 2.0315625 -2 2 C-1.34 1.34 -0.68 0.68 0 0 Z " fill="#F2D5C2" transform="translate(13,45)"/>
<path d="M0 0 C1.65 0 3.3 0 5 0 C4.67 0.66 4.34 1.32 4 2 C2.68 1.34 1.36 0.68 0 0 Z " fill="#F8E9DF" transform="translate(8,19)"/>
<path d="M0 0 C0 0.66 0 1.32 0 2 C-1.32 1.67 -2.64 1.34 -4 1 C-2 0 -2 0 0 0 Z " fill="#F3DAC8" transform="translate(18,33)"/>
<path d="M0 0 C0.66 0 1.32 0 2 0 C2 0.66 2 1.32 2 2 C1.01 1.67 0.02 1.34 -1 1 C-0.67 0.67 -0.34 0.34 0 0 Z " fill="#F5E1D3" transform="translate(13,57)"/>
<path d="M0 0 C3 1 3 1 3 1 Z " fill="#FFFFFF" transform="translate(11,32)"/>
<path d="M0 0 C2 1 2 1 2 1 Z " fill="#E8B592" transform="translate(13,38)"/>
<path d="M0 0 C2 1 2 1 2 1 Z " fill="#F3DAC8" transform="translate(8,25)"/>
<path d="M0 0 C2 1 2 1 2 1 Z " fill="#FFFFFF" transform="translate(5,21)"/>
<path d="" fill="#FFFFFF" transform="translate(0,0)"/>
<path d="" fill="#FFFFFF" transform="translate(0,0)"/>
</svg>
